<svg xmlns="http://www.w3.org/2000/svg" width="512" height="512" viewBox="0 0 512 512">
  <!-- Background -->
  <rect width="512" height="512" rx="80" fill="#0284c7"/>
  <!-- Tooth icon -->
  <g transform="translate(256, 230) scale(2.6)">
    <path d="M-36,-40 C-36,-40 -36,-56 -18,-56 C-8,-56 -4,-48 0,-48 C4,-48 8,-56 18,-56 C36,-56 36,-40 36,-40 C36,-24 28,-16 24,4 C22,14 20,48 14,48 C8,48 8,28 0,28 C-8,28 -8,48 -14,48 C-20,48 -22,14 -24,4 C-28,-16 -36,-24 -36,-40 Z" fill="white" stroke="white" stroke-width="1" stroke-linejoin="round"/>
  </g>
  <!-- Sparkle/cross accent top-right -->
  <g transform="translate(380, 100)" fill="rgba(255,255,255,0.5)">
    <rect x="-4" y="-16" width="8" height="32" rx="4"/>
    <rect x="-16" y="-4" width="32" height="8" rx="4"/>
  </g>
  <!-- Small sparkle -->
  <g transform="translate(135, 115)" fill="rgba(255,255,255,0.35)">
    <rect x="-2.5" y="-10" width="5" height="20" rx="2.5"/>
    <rect x="-10" y="-2.5" width="20" height="5" rx="2.5"/>
  </g>
</svg>
